<mxfile host="app.diagrams.net" agent="Mozilla/5.0 (X11; Linux x86_64) AppleWebKit/537.36 (KHTML, like Gecko) Chrome/122.0.0.0 Safari/537.36" version="27.0.2">
  <diagram name="Страница — 1" id="tEOrroQ3yTERYPy5oLY_">
    <mxGraphModel dx="1426" dy="813" grid="1" gridSize="10" guides="1" tooltips="1" connect="1" arrows="1" fold="1" page="1" pageScale="1" pageWidth="827" pageHeight="1169" math="0" shadow="0">
      <root>
        <mxCell id="0" />
        <mxCell id="1" parent="0" />
        <mxCell id="Oc1Io8EFWaLKfTR8lboS-1" value="" style="rounded=1;whiteSpace=wrap;html=1;" parent="1" vertex="1">
          <mxGeometry x="625" y="775" width="180" height="395" as="geometry" />
        </mxCell>
        <mxCell id="Oc1Io8EFWaLKfTR8lboS-2" style="edgeStyle=orthogonalEdgeStyle;rounded=0;orthogonalLoop=1;jettySize=auto;html=1;curved=1;entryX=0;entryY=0.5;entryDx=0;entryDy=0;strokeWidth=2;exitX=1;exitY=0.5;exitDx=0;exitDy=0;fillColor=#d0cee2;strokeColor=#56517e;" parent="1" source="Oc1Io8EFWaLKfTR8lboS-11" target="Oc1Io8EFWaLKfTR8lboS-5" edge="1">
          <mxGeometry relative="1" as="geometry">
            <mxPoint x="550" y="569.9999999999998" as="targetPoint" />
            <Array as="points">
              <mxPoint x="510" y="690" />
              <mxPoint x="510" y="690" />
            </Array>
            <mxPoint x="720" y="530" as="sourcePoint" />
          </mxGeometry>
        </mxCell>
        <mxCell id="Oc1Io8EFWaLKfTR8lboS-3" style="edgeStyle=orthogonalEdgeStyle;rounded=0;orthogonalLoop=1;jettySize=auto;html=1;entryX=0.5;entryY=0;entryDx=0;entryDy=0;curved=1;endArrow=none;endFill=0;" parent="1" source="Oc1Io8EFWaLKfTR8lboS-5" target="Oc1Io8EFWaLKfTR8lboS-1" edge="1">
          <mxGeometry relative="1" as="geometry" />
        </mxCell>
        <mxCell id="Oc1Io8EFWaLKfTR8lboS-4" style="edgeStyle=orthogonalEdgeStyle;rounded=0;orthogonalLoop=1;jettySize=auto;html=1;entryX=0.5;entryY=0;entryDx=0;entryDy=0;curved=1;endArrow=none;endFill=0;exitX=0.5;exitY=1;exitDx=0;exitDy=0;" parent="1" source="Oc1Io8EFWaLKfTR8lboS-5" target="Oc1Io8EFWaLKfTR8lboS-17" edge="1">
          <mxGeometry relative="1" as="geometry">
            <Array as="points">
              <mxPoint x="620" y="750" />
              <mxPoint x="535" y="750" />
            </Array>
          </mxGeometry>
        </mxCell>
        <mxCell id="Oc1Io8EFWaLKfTR8lboS-5" value="&lt;b&gt;&lt;font style=&quot;font-size: 15px;&quot;&gt;Analytics&lt;/font&gt;&lt;/b&gt;&amp;nbsp;&lt;div&gt;(data generation, analysis, and interpretation)&lt;/div&gt;" style="whiteSpace=wrap;html=1;fillColor=#d0cee2;strokeColor=#56517e;rounded=1;strokeWidth=2;" parent="1" vertex="1">
          <mxGeometry x="560" y="655" width="120" height="70" as="geometry" />
        </mxCell>
        <mxCell id="Oc1Io8EFWaLKfTR8lboS-6" style="edgeStyle=orthogonalEdgeStyle;rounded=0;orthogonalLoop=1;jettySize=auto;html=1;entryX=1;entryY=0.5;entryDx=0;entryDy=0;curved=1;endArrow=none;endFill=0;exitX=0.5;exitY=1;exitDx=0;exitDy=0;" parent="1" source="Oc1Io8EFWaLKfTR8lboS-7" target="Oc1Io8EFWaLKfTR8lboS-16" edge="1">
          <mxGeometry relative="1" as="geometry">
            <mxPoint x="960" y="730" as="sourcePoint" />
            <mxPoint x="795" y="1042.5" as="targetPoint" />
            <Array as="points">
              <mxPoint x="920" y="750" />
              <mxPoint x="820" y="750" />
              <mxPoint x="820" y="1070" />
            </Array>
          </mxGeometry>
        </mxCell>
        <mxCell id="Oc1Io8EFWaLKfTR8lboS-7" value="&lt;font style=&quot;font-size: 15px;&quot;&gt;&lt;b&gt;Post-Analytics&lt;/b&gt;&lt;/font&gt;&amp;nbsp;&lt;div&gt;(diagnosis and decisions)&lt;/div&gt;" style="rounded=1;whiteSpace=wrap;html=1;fillColor=#d0cee2;strokeColor=#56517e;strokeWidth=2;" parent="1" vertex="1">
          <mxGeometry x="860" y="652.5" width="120" height="75" as="geometry" />
        </mxCell>
        <mxCell id="Oc1Io8EFWaLKfTR8lboS-8" style="edgeStyle=orthogonalEdgeStyle;rounded=0;orthogonalLoop=1;jettySize=auto;html=1;curved=1;endArrow=none;endFill=0;" parent="1" source="Oc1Io8EFWaLKfTR8lboS-11" target="Oc1Io8EFWaLKfTR8lboS-13" edge="1">
          <mxGeometry relative="1" as="geometry">
            <Array as="points">
              <mxPoint x="365" y="750" />
              <mxPoint x="195" y="750" />
            </Array>
          </mxGeometry>
        </mxCell>
        <mxCell id="Oc1Io8EFWaLKfTR8lboS-9" style="edgeStyle=orthogonalEdgeStyle;rounded=0;orthogonalLoop=1;jettySize=auto;html=1;entryX=0.5;entryY=0;entryDx=0;entryDy=0;curved=1;endArrow=none;endFill=0;strokeColor=default;targetPerimeterSpacing=1;shadow=0;flowAnimation=0;" parent="1" source="Oc1Io8EFWaLKfTR8lboS-11" target="Oc1Io8EFWaLKfTR8lboS-12" edge="1">
          <mxGeometry relative="1" as="geometry" />
        </mxCell>
        <mxCell id="Oc1Io8EFWaLKfTR8lboS-10" style="edgeStyle=orthogonalEdgeStyle;rounded=0;orthogonalLoop=1;jettySize=auto;html=1;entryX=0.5;entryY=0;entryDx=0;entryDy=0;curved=1;endArrow=none;endFill=0;exitX=0.5;exitY=1;exitDx=0;exitDy=0;" parent="1" source="Oc1Io8EFWaLKfTR8lboS-11" target="Oc1Io8EFWaLKfTR8lboS-17" edge="1">
          <mxGeometry relative="1" as="geometry">
            <Array as="points">
              <mxPoint x="365" y="750" />
              <mxPoint x="535" y="750" />
            </Array>
          </mxGeometry>
        </mxCell>
        <mxCell id="Oc1Io8EFWaLKfTR8lboS-11" value="&lt;b&gt;&lt;font style=&quot;font-size: 15px;&quot;&gt;Pre-analytics&lt;/font&gt;&lt;/b&gt;&lt;div&gt;&lt;font style=&quot;font-size: 12px;&quot;&gt;(enhancing next steps through existing data)&lt;/font&gt;&lt;/div&gt;" style="rounded=1;whiteSpace=wrap;html=1;fillColor=#d0cee2;strokeColor=#56517e;strokeWidth=2;" parent="1" vertex="1">
          <mxGeometry x="297.5" y="652.5" width="135" height="75" as="geometry" />
        </mxCell>
        <mxCell id="Oc1Io8EFWaLKfTR8lboS-12" value="&lt;div&gt;&lt;span style=&quot;font-size: 13px;&quot;&gt;&lt;b&gt;Risk Stratification&lt;/b&gt;&lt;/span&gt;&lt;br&gt;&lt;/div&gt;&lt;div&gt;&lt;span style=&quot;font-size: 13px;&quot;&gt;&lt;b&gt;&lt;br&gt;&lt;/b&gt;&lt;/span&gt;&lt;/div&gt;&lt;div&gt;&lt;b&gt;Data:&lt;/b&gt;&amp;nbsp;&lt;span style=&quot;background-color: transparent;&quot;&gt;family history,&amp;nbsp;&lt;/span&gt;&lt;span style=&quot;background-color: transparent;&quot;&gt;EHR&amp;nbsp;&lt;/span&gt;&lt;/div&gt;&lt;div&gt;&lt;b&gt;Tasks:&amp;nbsp;&lt;/b&gt;&lt;/div&gt;&lt;div&gt;&lt;span style=&quot;background-color: transparent;&quot;&gt;1) assess genetic predispositions (specific patient)&lt;/span&gt;&lt;/div&gt;&lt;div&gt;&lt;span style=&quot;background-color: initial;&quot;&gt;2) identify high-risk patients (specific disease)&lt;br&gt;&lt;/span&gt;&lt;/div&gt;" style="whiteSpace=wrap;html=1;fillColor=#d0cee2;strokeColor=#56517e;rounded=1;" parent="1" vertex="1">
          <mxGeometry x="290" y="780" width="150" height="170" as="geometry" />
        </mxCell>
        <mxCell id="Oc1Io8EFWaLKfTR8lboS-13" value="&lt;span style=&quot;font-size: 13px;&quot;&gt;&lt;b&gt;Knowledge Navigation &amp;amp; Literature Review&lt;/b&gt;&lt;/span&gt;&lt;br&gt;&lt;div&gt;&lt;br&gt;&lt;/div&gt;&lt;div style=&quot;&quot;&gt;&lt;b&gt;Data:&lt;/b&gt;&amp;nbsp;&lt;span style=&quot;background-color: initial;&quot;&gt;research papers, EHR&lt;/span&gt;&lt;/div&gt;&lt;div style=&quot;&quot;&gt;&lt;span style=&quot;background-color: initial;&quot;&gt;&lt;b&gt;Tasks:&lt;/b&gt;&amp;nbsp;&lt;/span&gt;&lt;span style=&quot;background-color: initial;&quot;&gt;&amp;nbsp;&lt;/span&gt;&lt;/div&gt;&lt;div style=&quot;&quot;&gt;&lt;span style=&quot;background-color: initial;&quot;&gt;1) extract/highlight information (recognize entities and relations)&lt;/span&gt;&lt;/div&gt;2) medical Q&amp;amp;A&lt;div style=&quot;&quot;&gt;&lt;span style=&quot;background-color: initial;&quot;&gt;3) create new &quot;knowledge&quot;&lt;/span&gt;&lt;/div&gt;" style="whiteSpace=wrap;html=1;fillColor=#d0cee2;strokeColor=#56517e;rounded=1;" parent="1" vertex="1">
          <mxGeometry x="120" y="780" width="150" height="180" as="geometry" />
        </mxCell>
        <mxCell id="Oc1Io8EFWaLKfTR8lboS-14" style="edgeStyle=orthogonalEdgeStyle;rounded=0;orthogonalLoop=1;jettySize=auto;html=1;fillColor=#d0cee2;strokeColor=#56517e;dashed=1;dashPattern=1 4;" parent="1" source="Oc1Io8EFWaLKfTR8lboS-15" target="Oc1Io8EFWaLKfTR8lboS-16" edge="1">
          <mxGeometry relative="1" as="geometry" />
        </mxCell>
        <mxCell id="Oc1Io8EFWaLKfTR8lboS-15" value="&lt;div&gt;&lt;span style=&quot;font-size: 13px;&quot;&gt;&lt;b&gt;Analysis of Variant Effects&lt;/b&gt;&lt;/span&gt;&lt;/div&gt;&lt;div&gt;&lt;span style=&quot;font-size: 13px;&quot;&gt;&lt;b&gt;&lt;br&gt;&lt;/b&gt;&lt;/span&gt;&lt;/div&gt;&lt;div&gt;&lt;b&gt;Data:&lt;/b&gt;&amp;nbsp;DNA, RNA, protein sequences&lt;/div&gt;&lt;div&gt;&lt;b style=&quot;background-color: initial;&quot;&gt;Tasks:&lt;/b&gt;&lt;span style=&quot;background-color: initial;&quot;&gt;&lt;br&gt;&lt;/span&gt;&lt;/div&gt;&lt;div&gt;&lt;span style=&quot;background-color: initial;&quot;&gt;1) sequence analysis&lt;/span&gt;&lt;/div&gt;&lt;div&gt;&lt;span style=&quot;background-color: initial;&quot;&gt;2) molecular effect prediction&lt;/span&gt;&lt;/div&gt;&lt;div&gt;&lt;span style=&quot;background-color: initial;&quot;&gt;3) phenotype/disease prediction&lt;/span&gt;&lt;/div&gt;" style="whiteSpace=wrap;html=1;fillColor=#d0cee2;strokeColor=#56517e;rounded=1;" parent="1" vertex="1">
          <mxGeometry x="635" y="790" width="160" height="160" as="geometry" />
        </mxCell>
        <mxCell id="Oc1Io8EFWaLKfTR8lboS-16" value="&lt;span style=&quot;font-size: 13px;&quot;&gt;&lt;b&gt;Clinical Variant Interpretation&lt;/b&gt;&lt;/span&gt;&lt;br&gt;&lt;div&gt;&lt;div&gt;&lt;br&gt;&lt;/div&gt;&lt;div&gt;&lt;b&gt;Data:&lt;/b&gt;&amp;nbsp;variants, literature&lt;/div&gt;&lt;div&gt;&lt;b&gt;Tasks:&lt;/b&gt;&amp;nbsp;&lt;/div&gt;&lt;div&gt;1) identify causal variants AND&lt;span style=&quot;background-color: transparent;&quot;&gt;&amp;nbsp;classify variants&lt;/span&gt;&lt;/div&gt;&lt;div&gt;2) prioritize variants/genes/gene sets&lt;/div&gt;&lt;/div&gt;" style="whiteSpace=wrap;html=1;fillColor=#d0cee2;strokeColor=#56517e;rounded=1;" parent="1" vertex="1">
          <mxGeometry x="635" y="980" width="160" height="180" as="geometry" />
        </mxCell>
        <mxCell id="Oc1Io8EFWaLKfTR8lboS-17" value="&lt;span style=&quot;font-size: 13px;&quot;&gt;&lt;b&gt;Medical Imaging Analysis&lt;/b&gt;&lt;/span&gt;&lt;br&gt;&lt;div&gt;&lt;div&gt;&lt;br&gt;&lt;/div&gt;&lt;div&gt;&lt;b&gt;Data:&lt;/b&gt;&amp;nbsp;MRI/CT scans, WSI, microscopy images, facial images&lt;/div&gt;&lt;div&gt;&lt;b&gt;Tasks:&lt;/b&gt;&amp;nbsp;&lt;/div&gt;&lt;div&gt;1) identify and analyze structural abnormalities&lt;/div&gt;&lt;div&gt;2) risk evaluations and disease prediction&lt;/div&gt;&lt;/div&gt;&lt;div&gt;3) predict mutations/ karyotype&lt;/div&gt;" style="whiteSpace=wrap;html=1;fillColor=#d0cee2;strokeColor=#56517e;rounded=1;" parent="1" vertex="1">
          <mxGeometry x="460" y="780" width="150" height="190" as="geometry" />
        </mxCell>
        <mxCell id="Oc1Io8EFWaLKfTR8lboS-18" style="edgeStyle=orthogonalEdgeStyle;rounded=0;orthogonalLoop=1;jettySize=auto;html=1;curved=1;entryX=0;entryY=0.5;entryDx=0;entryDy=0;strokeWidth=2;exitX=1;exitY=0.5;exitDx=0;exitDy=0;fillColor=#d0cee2;strokeColor=#56517e;" parent="1" source="Oc1Io8EFWaLKfTR8lboS-5" target="Oc1Io8EFWaLKfTR8lboS-7" edge="1">
          <mxGeometry relative="1" as="geometry">
            <mxPoint x="880" y="680" as="targetPoint" />
            <Array as="points">
              <mxPoint x="780" y="690" />
              <mxPoint x="780" y="690" />
            </Array>
            <mxPoint x="670" y="680" as="sourcePoint" />
          </mxGeometry>
        </mxCell>
        <mxCell id="Oc1Io8EFWaLKfTR8lboS-19" value="" style="rounded=1;whiteSpace=wrap;html=1;" parent="1" vertex="1">
          <mxGeometry x="1010" y="775" width="180" height="365" as="geometry" />
        </mxCell>
        <mxCell id="Oc1Io8EFWaLKfTR8lboS-20" style="edgeStyle=orthogonalEdgeStyle;rounded=0;orthogonalLoop=1;jettySize=auto;html=1;entryX=0.5;entryY=0;entryDx=0;entryDy=0;curved=1;endArrow=none;endFill=0;exitX=0.5;exitY=1;exitDx=0;exitDy=0;" parent="1" source="Oc1Io8EFWaLKfTR8lboS-7" target="Oc1Io8EFWaLKfTR8lboS-19" edge="1">
          <mxGeometry relative="1" as="geometry">
            <mxPoint x="960" y="720" as="sourcePoint" />
            <Array as="points">
              <mxPoint x="920" y="750" />
              <mxPoint x="1100" y="750" />
            </Array>
          </mxGeometry>
        </mxCell>
        <mxCell id="Oc1Io8EFWaLKfTR8lboS-21" style="edgeStyle=orthogonalEdgeStyle;rounded=0;orthogonalLoop=1;jettySize=auto;html=1;entryX=0.5;entryY=0;entryDx=0;entryDy=0;curved=1;endArrow=none;endFill=0;exitX=0.5;exitY=1;exitDx=0;exitDy=0;" parent="1" source="Oc1Io8EFWaLKfTR8lboS-7" target="Oc1Io8EFWaLKfTR8lboS-25" edge="1">
          <mxGeometry relative="1" as="geometry">
            <Array as="points">
              <mxPoint x="920" y="740" />
              <mxPoint x="920" y="740" />
            </Array>
            <mxPoint x="960" y="720" as="sourcePoint" />
          </mxGeometry>
        </mxCell>
        <mxCell id="Oc1Io8EFWaLKfTR8lboS-22" style="edgeStyle=orthogonalEdgeStyle;rounded=0;orthogonalLoop=1;jettySize=auto;html=1;fillColor=#d0cee2;strokeColor=#56517e;dashed=1;dashPattern=1 4;" parent="1" source="Oc1Io8EFWaLKfTR8lboS-23" target="Oc1Io8EFWaLKfTR8lboS-24" edge="1">
          <mxGeometry relative="1" as="geometry" />
        </mxCell>
        <mxCell id="Oc1Io8EFWaLKfTR8lboS-23" value="&lt;span style=&quot;font-size: 13px;&quot;&gt;&lt;b&gt;Data &amp;amp; Results Aggregation&lt;/b&gt;&lt;/span&gt;&lt;br&gt;&lt;div&gt;&lt;div&gt;&lt;br&gt;&lt;/div&gt;&lt;div&gt;&lt;b&gt;Data:&lt;/b&gt;&amp;nbsp;variants data, literature&lt;/div&gt;&lt;div&gt;&lt;b&gt;Tasks:&lt;/b&gt;&amp;nbsp;data fusion to:&lt;/div&gt;&lt;div&gt;1) interpret&lt;/div&gt;&lt;div&gt;2) predict result/outcome&lt;/div&gt;&lt;div&gt;&lt;span style=&quot;background-color: transparent;&quot;&gt;3) treatment recomendation&lt;/span&gt;&lt;/div&gt;&lt;/div&gt;" style="whiteSpace=wrap;html=1;fillColor=#d0cee2;strokeColor=#56517e;rounded=1;" parent="1" vertex="1">
          <mxGeometry x="1020" y="790" width="160" height="130" as="geometry" />
        </mxCell>
        <mxCell id="Oc1Io8EFWaLKfTR8lboS-24" value="&lt;span style=&quot;font-size: 13px;&quot;&gt;&lt;b&gt;Clinical Report Generation &amp;amp; Decision Support&lt;/b&gt;&lt;/span&gt;&lt;br&gt;&lt;div style=&quot;&quot;&gt;&lt;div style=&quot;font-size: 13px;&quot;&gt;&lt;br&gt;&lt;/div&gt;&lt;div style=&quot;&quot;&gt;&lt;font style=&quot;font-size: 12px;&quot;&gt;&lt;b style=&quot;&quot;&gt;Data:&lt;/b&gt;&amp;nbsp;EHR and clinical notes, literature&lt;/font&gt;&lt;/div&gt;&lt;div style=&quot;&quot;&gt;&lt;font style=&quot;font-size: 12px;&quot;&gt;&lt;b style=&quot;&quot;&gt;Tasks:&lt;/b&gt;&amp;nbsp;&lt;/font&gt;&lt;/div&gt;&lt;div style=&quot;&quot;&gt;&lt;font style=&quot;font-size: 12px;&quot;&gt;1) generate report/summary - support professionals&lt;/font&gt;&lt;/div&gt;&lt;div style=&quot;&quot;&gt;&lt;font style=&quot;font-size: 12px;&quot;&gt;2) communicate + provide answers - replace doctors&lt;/font&gt;&lt;/div&gt;&lt;/div&gt;" style="whiteSpace=wrap;html=1;fillColor=#d0cee2;strokeColor=#56517e;rounded=1;" parent="1" vertex="1">
          <mxGeometry x="1020" y="950" width="160" height="180" as="geometry" />
        </mxCell>
        <mxCell id="Oc1Io8EFWaLKfTR8lboS-25" value="&lt;span style=&quot;font-size: 13px;&quot;&gt;&lt;b&gt;Patient Clustering &amp;amp; Subtyping&lt;/b&gt;&lt;/span&gt;&lt;br&gt;&lt;div style=&quot;font-size: 13px;&quot;&gt;&lt;div&gt;&lt;br&gt;&lt;/div&gt;&lt;div&gt;&lt;b&gt;Data:&lt;/b&gt;&amp;nbsp;imaging, genetic, clinical data&lt;/div&gt;&lt;div&gt;&lt;b&gt;Tasks:&lt;/b&gt;&amp;nbsp;&lt;/div&gt;&lt;div&gt;1) subtype diseases&amp;nbsp;&lt;/div&gt;&lt;div&gt;2) group patients for differential diagnostics&lt;/div&gt;&lt;/div&gt;" style="whiteSpace=wrap;html=1;fillColor=#d0cee2;strokeColor=#56517e;rounded=1;arcSize=24;" parent="1" vertex="1">
          <mxGeometry x="840" y="775" width="160" height="165" as="geometry" />
        </mxCell>
        <mxCell id="UnAvLPQiEJ3Z3c9N4t-g-1" value="" style="rounded=1;whiteSpace=wrap;html=1;" vertex="1" parent="1">
          <mxGeometry x="625" y="775" width="180" height="395" as="geometry" />
        </mxCell>
        <mxCell id="UnAvLPQiEJ3Z3c9N4t-g-2" style="edgeStyle=orthogonalEdgeStyle;rounded=0;orthogonalLoop=1;jettySize=auto;html=1;curved=1;entryX=0;entryY=0.5;entryDx=0;entryDy=0;strokeWidth=2;exitX=1;exitY=0.5;exitDx=0;exitDy=0;fillColor=#d0cee2;strokeColor=#56517e;" edge="1" parent="1" source="UnAvLPQiEJ3Z3c9N4t-g-11" target="UnAvLPQiEJ3Z3c9N4t-g-5">
          <mxGeometry relative="1" as="geometry">
            <mxPoint x="550" y="569.9999999999998" as="targetPoint" />
            <Array as="points">
              <mxPoint x="510" y="690" />
              <mxPoint x="510" y="690" />
            </Array>
            <mxPoint x="720" y="530" as="sourcePoint" />
          </mxGeometry>
        </mxCell>
        <mxCell id="UnAvLPQiEJ3Z3c9N4t-g-3" style="edgeStyle=orthogonalEdgeStyle;rounded=0;orthogonalLoop=1;jettySize=auto;html=1;entryX=0.5;entryY=0;entryDx=0;entryDy=0;curved=1;endArrow=none;endFill=0;" edge="1" parent="1" source="UnAvLPQiEJ3Z3c9N4t-g-5" target="UnAvLPQiEJ3Z3c9N4t-g-1">
          <mxGeometry relative="1" as="geometry" />
        </mxCell>
        <mxCell id="UnAvLPQiEJ3Z3c9N4t-g-4" style="edgeStyle=orthogonalEdgeStyle;rounded=0;orthogonalLoop=1;jettySize=auto;html=1;entryX=0.5;entryY=0;entryDx=0;entryDy=0;curved=1;endArrow=none;endFill=0;exitX=0.5;exitY=1;exitDx=0;exitDy=0;" edge="1" parent="1" source="UnAvLPQiEJ3Z3c9N4t-g-5" target="UnAvLPQiEJ3Z3c9N4t-g-17">
          <mxGeometry relative="1" as="geometry">
            <Array as="points">
              <mxPoint x="620" y="750" />
              <mxPoint x="535" y="750" />
            </Array>
          </mxGeometry>
        </mxCell>
        <mxCell id="UnAvLPQiEJ3Z3c9N4t-g-5" value="&lt;b&gt;&lt;font style=&quot;font-size: 15px;&quot;&gt;Analytics&lt;/font&gt;&lt;/b&gt;&amp;nbsp;&lt;div&gt;(data generation, analysis, and interpretation)&lt;/div&gt;" style="whiteSpace=wrap;html=1;fillColor=#d0cee2;strokeColor=#56517e;rounded=1;strokeWidth=2;" vertex="1" parent="1">
          <mxGeometry x="560" y="655" width="120" height="70" as="geometry" />
        </mxCell>
        <mxCell id="UnAvLPQiEJ3Z3c9N4t-g-6" style="edgeStyle=orthogonalEdgeStyle;rounded=0;orthogonalLoop=1;jettySize=auto;html=1;entryX=1;entryY=0.5;entryDx=0;entryDy=0;curved=1;endArrow=none;endFill=0;exitX=0.5;exitY=1;exitDx=0;exitDy=0;" edge="1" parent="1" source="UnAvLPQiEJ3Z3c9N4t-g-7" target="UnAvLPQiEJ3Z3c9N4t-g-16">
          <mxGeometry relative="1" as="geometry">
            <mxPoint x="960" y="730" as="sourcePoint" />
            <mxPoint x="795" y="1042.5" as="targetPoint" />
            <Array as="points">
              <mxPoint x="920" y="750" />
              <mxPoint x="820" y="750" />
              <mxPoint x="820" y="1070" />
            </Array>
          </mxGeometry>
        </mxCell>
        <mxCell id="UnAvLPQiEJ3Z3c9N4t-g-7" value="&lt;font style=&quot;font-size: 15px;&quot;&gt;&lt;b&gt;Post-Analytics&lt;/b&gt;&lt;/font&gt;&amp;nbsp;&lt;div&gt;(diagnosis and decisions)&lt;/div&gt;" style="rounded=1;whiteSpace=wrap;html=1;fillColor=#d0cee2;strokeColor=#56517e;strokeWidth=2;" vertex="1" parent="1">
          <mxGeometry x="860" y="652.5" width="120" height="75" as="geometry" />
        </mxCell>
        <mxCell id="UnAvLPQiEJ3Z3c9N4t-g-8" style="edgeStyle=orthogonalEdgeStyle;rounded=0;orthogonalLoop=1;jettySize=auto;html=1;curved=1;endArrow=none;endFill=0;" edge="1" parent="1" source="UnAvLPQiEJ3Z3c9N4t-g-11" target="UnAvLPQiEJ3Z3c9N4t-g-13">
          <mxGeometry relative="1" as="geometry">
            <Array as="points">
              <mxPoint x="365" y="750" />
              <mxPoint x="195" y="750" />
            </Array>
          </mxGeometry>
        </mxCell>
        <mxCell id="UnAvLPQiEJ3Z3c9N4t-g-9" style="edgeStyle=orthogonalEdgeStyle;rounded=0;orthogonalLoop=1;jettySize=auto;html=1;entryX=0.5;entryY=0;entryDx=0;entryDy=0;curved=1;endArrow=none;endFill=0;strokeColor=default;targetPerimeterSpacing=1;shadow=0;flowAnimation=0;" edge="1" parent="1" source="UnAvLPQiEJ3Z3c9N4t-g-11" target="UnAvLPQiEJ3Z3c9N4t-g-12">
          <mxGeometry relative="1" as="geometry" />
        </mxCell>
        <mxCell id="UnAvLPQiEJ3Z3c9N4t-g-10" style="edgeStyle=orthogonalEdgeStyle;rounded=0;orthogonalLoop=1;jettySize=auto;html=1;entryX=0.5;entryY=0;entryDx=0;entryDy=0;curved=1;endArrow=none;endFill=0;exitX=0.5;exitY=1;exitDx=0;exitDy=0;" edge="1" parent="1" source="UnAvLPQiEJ3Z3c9N4t-g-11" target="UnAvLPQiEJ3Z3c9N4t-g-17">
          <mxGeometry relative="1" as="geometry">
            <Array as="points">
              <mxPoint x="365" y="750" />
              <mxPoint x="535" y="750" />
            </Array>
          </mxGeometry>
        </mxCell>
        <mxCell id="UnAvLPQiEJ3Z3c9N4t-g-11" value="&lt;b&gt;&lt;font style=&quot;font-size: 15px;&quot;&gt;Pre-analytics&lt;/font&gt;&lt;/b&gt;&lt;div&gt;&lt;font style=&quot;font-size: 12px;&quot;&gt;(enhancing next steps through existing data)&lt;/font&gt;&lt;/div&gt;" style="rounded=1;whiteSpace=wrap;html=1;fillColor=#d0cee2;strokeColor=#56517e;strokeWidth=2;" vertex="1" parent="1">
          <mxGeometry x="297.5" y="652.5" width="135" height="75" as="geometry" />
        </mxCell>
        <mxCell id="UnAvLPQiEJ3Z3c9N4t-g-12" value="&lt;div&gt;&lt;span style=&quot;font-size: 13px;&quot;&gt;&lt;b&gt;Risk Stratification&lt;/b&gt;&lt;/span&gt;&lt;br&gt;&lt;/div&gt;&lt;div&gt;&lt;span style=&quot;font-size: 13px;&quot;&gt;&lt;b&gt;&lt;br&gt;&lt;/b&gt;&lt;/span&gt;&lt;/div&gt;&lt;div&gt;&lt;b&gt;Data:&lt;/b&gt;&amp;nbsp;&lt;span style=&quot;background-color: transparent;&quot;&gt;family history,&amp;nbsp;&lt;/span&gt;&lt;span style=&quot;background-color: transparent;&quot;&gt;EHR&amp;nbsp;&lt;/span&gt;&lt;/div&gt;&lt;div&gt;&lt;b&gt;Tasks:&amp;nbsp;&lt;/b&gt;&lt;/div&gt;&lt;div&gt;&lt;span style=&quot;background-color: transparent;&quot;&gt;1) assess genetic predispositions (specific patient)&lt;/span&gt;&lt;/div&gt;&lt;div&gt;&lt;span style=&quot;background-color: initial;&quot;&gt;2) identify high-risk patients (specific disease)&lt;br&gt;&lt;/span&gt;&lt;/div&gt;" style="whiteSpace=wrap;html=1;fillColor=#d0cee2;strokeColor=#56517e;rounded=1;" vertex="1" parent="1">
          <mxGeometry x="290" y="780" width="150" height="170" as="geometry" />
        </mxCell>
        <mxCell id="UnAvLPQiEJ3Z3c9N4t-g-13" value="&lt;span style=&quot;font-size: 13px;&quot;&gt;&lt;b&gt;Knowledge Navigation &amp;amp; Literature Review&lt;/b&gt;&lt;/span&gt;&lt;br&gt;&lt;div&gt;&lt;br&gt;&lt;/div&gt;&lt;div style=&quot;&quot;&gt;&lt;b&gt;Data:&lt;/b&gt;&amp;nbsp;&lt;span style=&quot;background-color: initial;&quot;&gt;research papers, EHR&lt;/span&gt;&lt;/div&gt;&lt;div style=&quot;&quot;&gt;&lt;span style=&quot;background-color: initial;&quot;&gt;&lt;b&gt;Tasks:&lt;/b&gt;&amp;nbsp;&lt;/span&gt;&lt;span style=&quot;background-color: initial;&quot;&gt;&amp;nbsp;&lt;/span&gt;&lt;/div&gt;&lt;div style=&quot;&quot;&gt;&lt;span style=&quot;background-color: initial;&quot;&gt;1) extract/highlight information (recognize entities and relations)&lt;/span&gt;&lt;/div&gt;2) medical Q&amp;amp;A&lt;div style=&quot;&quot;&gt;&lt;span style=&quot;background-color: initial;&quot;&gt;3) create new &quot;knowledge&quot;&lt;/span&gt;&lt;/div&gt;" style="whiteSpace=wrap;html=1;fillColor=#d0cee2;strokeColor=#56517e;rounded=1;" vertex="1" parent="1">
          <mxGeometry x="120" y="780" width="150" height="180" as="geometry" />
        </mxCell>
        <mxCell id="UnAvLPQiEJ3Z3c9N4t-g-14" style="edgeStyle=orthogonalEdgeStyle;rounded=0;orthogonalLoop=1;jettySize=auto;html=1;fillColor=#d0cee2;strokeColor=#56517e;dashed=1;dashPattern=1 4;" edge="1" parent="1" source="UnAvLPQiEJ3Z3c9N4t-g-15" target="UnAvLPQiEJ3Z3c9N4t-g-16">
          <mxGeometry relative="1" as="geometry" />
        </mxCell>
        <mxCell id="UnAvLPQiEJ3Z3c9N4t-g-15" value="&lt;div&gt;&lt;span style=&quot;font-size: 13px;&quot;&gt;&lt;b&gt;Analysis of Variant Effects&lt;/b&gt;&lt;/span&gt;&lt;/div&gt;&lt;div&gt;&lt;span style=&quot;font-size: 13px;&quot;&gt;&lt;b&gt;&lt;br&gt;&lt;/b&gt;&lt;/span&gt;&lt;/div&gt;&lt;div&gt;&lt;b&gt;Data:&lt;/b&gt;&amp;nbsp;DNA, RNA, protein sequences&lt;/div&gt;&lt;div&gt;&lt;b style=&quot;background-color: initial;&quot;&gt;Tasks:&lt;/b&gt;&lt;span style=&quot;background-color: initial;&quot;&gt;&lt;br&gt;&lt;/span&gt;&lt;/div&gt;&lt;div&gt;&lt;span style=&quot;background-color: initial;&quot;&gt;1) sequence analysis&lt;/span&gt;&lt;/div&gt;&lt;div&gt;&lt;span style=&quot;background-color: initial;&quot;&gt;2) molecular effect prediction&lt;/span&gt;&lt;/div&gt;&lt;div&gt;&lt;span style=&quot;background-color: initial;&quot;&gt;3) phenotype/disease prediction&lt;/span&gt;&lt;/div&gt;" style="whiteSpace=wrap;html=1;fillColor=#d0cee2;strokeColor=#56517e;rounded=1;" vertex="1" parent="1">
          <mxGeometry x="635" y="790" width="160" height="160" as="geometry" />
        </mxCell>
        <mxCell id="UnAvLPQiEJ3Z3c9N4t-g-16" value="&lt;span style=&quot;font-size: 13px;&quot;&gt;&lt;b&gt;Clinical Variant Interpretation&lt;/b&gt;&lt;/span&gt;&lt;br&gt;&lt;div&gt;&lt;div&gt;&lt;br&gt;&lt;/div&gt;&lt;div&gt;&lt;b&gt;Data:&lt;/b&gt;&amp;nbsp;variants, literature&lt;/div&gt;&lt;div&gt;&lt;b&gt;Tasks:&lt;/b&gt;&amp;nbsp;&lt;/div&gt;&lt;div&gt;1) identify causal variants AND&lt;span style=&quot;background-color: transparent;&quot;&gt;&amp;nbsp;classify variants&lt;/span&gt;&lt;/div&gt;&lt;div&gt;2) prioritize variants/genes/gene sets&lt;/div&gt;&lt;/div&gt;" style="whiteSpace=wrap;html=1;fillColor=#d0cee2;strokeColor=#56517e;rounded=1;" vertex="1" parent="1">
          <mxGeometry x="635" y="980" width="160" height="180" as="geometry" />
        </mxCell>
        <mxCell id="UnAvLPQiEJ3Z3c9N4t-g-17" value="&lt;span style=&quot;font-size: 13px;&quot;&gt;&lt;b&gt;Medical Imaging Analysis&lt;/b&gt;&lt;/span&gt;&lt;br&gt;&lt;div&gt;&lt;div&gt;&lt;br&gt;&lt;/div&gt;&lt;div&gt;&lt;b&gt;Data:&lt;/b&gt;&amp;nbsp;MRI/CT scans, WSI, microscopy images, facial images&lt;/div&gt;&lt;div&gt;&lt;b&gt;Tasks:&lt;/b&gt;&amp;nbsp;&lt;/div&gt;&lt;div&gt;1) identify and analyze structural abnormalities&lt;/div&gt;&lt;div&gt;2) risk evaluations and disease prediction&lt;/div&gt;&lt;/div&gt;&lt;div&gt;3) predict mutations/ karyotype&lt;/div&gt;" style="whiteSpace=wrap;html=1;fillColor=#d0cee2;strokeColor=#56517e;rounded=1;" vertex="1" parent="1">
          <mxGeometry x="460" y="780" width="150" height="190" as="geometry" />
        </mxCell>
        <mxCell id="UnAvLPQiEJ3Z3c9N4t-g-18" style="edgeStyle=orthogonalEdgeStyle;rounded=0;orthogonalLoop=1;jettySize=auto;html=1;curved=1;entryX=0;entryY=0.5;entryDx=0;entryDy=0;strokeWidth=2;exitX=1;exitY=0.5;exitDx=0;exitDy=0;fillColor=#d0cee2;strokeColor=#56517e;" edge="1" parent="1" source="UnAvLPQiEJ3Z3c9N4t-g-5" target="UnAvLPQiEJ3Z3c9N4t-g-7">
          <mxGeometry relative="1" as="geometry">
            <mxPoint x="880" y="680" as="targetPoint" />
            <Array as="points">
              <mxPoint x="780" y="690" />
              <mxPoint x="780" y="690" />
            </Array>
            <mxPoint x="670" y="680" as="sourcePoint" />
          </mxGeometry>
        </mxCell>
        <mxCell id="UnAvLPQiEJ3Z3c9N4t-g-19" value="" style="rounded=1;whiteSpace=wrap;html=1;" vertex="1" parent="1">
          <mxGeometry x="1010" y="775" width="180" height="365" as="geometry" />
        </mxCell>
        <mxCell id="UnAvLPQiEJ3Z3c9N4t-g-20" style="edgeStyle=orthogonalEdgeStyle;rounded=0;orthogonalLoop=1;jettySize=auto;html=1;entryX=0.5;entryY=0;entryDx=0;entryDy=0;curved=1;endArrow=none;endFill=0;exitX=0.5;exitY=1;exitDx=0;exitDy=0;" edge="1" parent="1" source="UnAvLPQiEJ3Z3c9N4t-g-7" target="UnAvLPQiEJ3Z3c9N4t-g-19">
          <mxGeometry relative="1" as="geometry">
            <mxPoint x="960" y="720" as="sourcePoint" />
            <Array as="points">
              <mxPoint x="920" y="750" />
              <mxPoint x="1100" y="750" />
            </Array>
          </mxGeometry>
        </mxCell>
        <mxCell id="UnAvLPQiEJ3Z3c9N4t-g-21" style="edgeStyle=orthogonalEdgeStyle;rounded=0;orthogonalLoop=1;jettySize=auto;html=1;entryX=0.5;entryY=0;entryDx=0;entryDy=0;curved=1;endArrow=none;endFill=0;exitX=0.5;exitY=1;exitDx=0;exitDy=0;" edge="1" parent="1" source="UnAvLPQiEJ3Z3c9N4t-g-7" target="UnAvLPQiEJ3Z3c9N4t-g-25">
          <mxGeometry relative="1" as="geometry">
            <Array as="points">
              <mxPoint x="920" y="740" />
              <mxPoint x="920" y="740" />
            </Array>
            <mxPoint x="960" y="720" as="sourcePoint" />
          </mxGeometry>
        </mxCell>
        <mxCell id="UnAvLPQiEJ3Z3c9N4t-g-22" style="edgeStyle=orthogonalEdgeStyle;rounded=0;orthogonalLoop=1;jettySize=auto;html=1;fillColor=#d0cee2;strokeColor=#56517e;dashed=1;dashPattern=1 4;" edge="1" parent="1" source="UnAvLPQiEJ3Z3c9N4t-g-23" target="UnAvLPQiEJ3Z3c9N4t-g-24">
          <mxGeometry relative="1" as="geometry" />
        </mxCell>
        <mxCell id="UnAvLPQiEJ3Z3c9N4t-g-23" value="&lt;span style=&quot;font-size: 13px;&quot;&gt;&lt;b&gt;Data &amp;amp; Results Aggregation&lt;/b&gt;&lt;/span&gt;&lt;br&gt;&lt;div&gt;&lt;div&gt;&lt;br&gt;&lt;/div&gt;&lt;div&gt;&lt;b&gt;Data:&lt;/b&gt;&amp;nbsp;variants data, literature&lt;/div&gt;&lt;div&gt;&lt;b&gt;Tasks:&lt;/b&gt;&amp;nbsp;data fusion to:&lt;/div&gt;&lt;div&gt;1) interpret&lt;/div&gt;&lt;div&gt;2) predict result/outcome&lt;/div&gt;&lt;div&gt;&lt;span style=&quot;background-color: transparent;&quot;&gt;3) treatment recomendation&lt;/span&gt;&lt;/div&gt;&lt;/div&gt;" style="whiteSpace=wrap;html=1;fillColor=#d0cee2;strokeColor=#56517e;rounded=1;" vertex="1" parent="1">
          <mxGeometry x="1020" y="790" width="160" height="130" as="geometry" />
        </mxCell>
        <mxCell id="UnAvLPQiEJ3Z3c9N4t-g-24" value="&lt;span style=&quot;font-size: 13px;&quot;&gt;&lt;b&gt;Clinical Report Generation &amp;amp; Decision Support&lt;/b&gt;&lt;/span&gt;&lt;br&gt;&lt;div style=&quot;&quot;&gt;&lt;div style=&quot;font-size: 13px;&quot;&gt;&lt;br&gt;&lt;/div&gt;&lt;div style=&quot;&quot;&gt;&lt;font style=&quot;font-size: 12px;&quot;&gt;&lt;b style=&quot;&quot;&gt;Data:&lt;/b&gt;&amp;nbsp;EHR and clinical&amp;nbsp;&lt;/font&gt;&lt;/div&gt;&lt;div style=&quot;&quot;&gt;&lt;font style=&quot;font-size: 12px;&quot;&gt;notes, literature&lt;/font&gt;&lt;/div&gt;&lt;div style=&quot;&quot;&gt;&lt;font style=&quot;font-size: 12px;&quot;&gt;&lt;b style=&quot;&quot;&gt;Tasks:&lt;/b&gt;&amp;nbsp;&lt;/font&gt;&lt;/div&gt;&lt;div style=&quot;&quot;&gt;&lt;font style=&quot;font-size: 12px;&quot;&gt;1)&amp;nbsp;&lt;/font&gt;&lt;span style=&quot;background-color: transparent;&quot;&gt;generate report/summary&amp;nbsp;&lt;/span&gt;&lt;/div&gt;&lt;div style=&quot;&quot;&gt;&lt;font style=&quot;font-size: 12px;&quot;&gt;2)&amp;nbsp;&lt;/font&gt;&lt;span style=&quot;background-color: transparent;&quot;&gt;communicate and provide answers&lt;/span&gt;&lt;/div&gt;&lt;/div&gt;" style="whiteSpace=wrap;html=1;fillColor=#d0cee2;strokeColor=#56517e;rounded=1;" vertex="1" parent="1">
          <mxGeometry x="1020" y="950" width="160" height="180" as="geometry" />
        </mxCell>
        <mxCell id="UnAvLPQiEJ3Z3c9N4t-g-25" value="&lt;span style=&quot;font-size: 13px;&quot;&gt;&lt;b&gt;Patient Clustering &amp;amp; Subtyping&lt;/b&gt;&lt;/span&gt;&lt;br&gt;&lt;div style=&quot;font-size: 13px;&quot;&gt;&lt;div&gt;&lt;br&gt;&lt;/div&gt;&lt;div&gt;&lt;b&gt;Data:&lt;/b&gt;&amp;nbsp;imaging, genetic, clinical data&lt;/div&gt;&lt;div&gt;&lt;b&gt;Tasks:&lt;/b&gt;&amp;nbsp;&lt;/div&gt;&lt;div&gt;1) subtype diseases&amp;nbsp;&lt;/div&gt;&lt;div&gt;2) group patients for differential diagnostics&lt;/div&gt;&lt;/div&gt;" style="whiteSpace=wrap;html=1;fillColor=#d0cee2;strokeColor=#56517e;rounded=1;arcSize=24;" vertex="1" parent="1">
          <mxGeometry x="840" y="775" width="160" height="165" as="geometry" />
        </mxCell>
        <mxCell id="UnAvLPQiEJ3Z3c9N4t-g-31" style="edgeStyle=orthogonalEdgeStyle;rounded=0;orthogonalLoop=1;jettySize=auto;html=1;exitX=0.5;exitY=1;exitDx=0;exitDy=0;" edge="1" parent="1">
          <mxGeometry relative="1" as="geometry">
            <mxPoint x="554" y="1230" as="sourcePoint" />
            <mxPoint x="554" y="1230" as="targetPoint" />
          </mxGeometry>
        </mxCell>
      </root>
    </mxGraphModel>
  </diagram>
</mxfile>
